<svg width="134" height="134" viewBox="0 0 134 134" fill="none" xmlns="http://www.w3.org/2000/svg">
<g clip-path="url(#clip0_91_2)">
<path fill-rule="evenodd" clip-rule="evenodd" d="M67 0L130.721 46.2959L106.382 121.204H27.6184L3.27921 46.2959L67 0Z" fill="#FF6565"/>
<path d="M30.1003 83V73.816H31.2623V82.006H35.2803V83H30.1003ZM39.2789 83.168C37.6129 83.168 36.1289 81.866 36.1289 79.612C36.1289 77.33 37.6129 76.028 39.2789 76.028C40.9449 76.028 42.4289 77.33 42.4289 79.612C42.4289 81.866 40.9449 83.168 39.2789 83.168ZM39.2789 82.216C40.4549 82.216 41.2389 81.166 41.2389 79.612C41.2389 78.044 40.4549 76.98 39.2789 76.98C38.1169 76.98 37.3189 78.044 37.3189 79.612C37.3189 81.166 38.1169 82.216 39.2789 82.216ZM44.2208 83V76.196H45.1728L45.2708 77.428H45.3128C45.7748 76.574 46.4748 76.028 47.2448 76.028C47.5388 76.028 47.7488 76.07 47.9728 76.168L47.7488 77.176C47.5248 77.106 47.3708 77.064 47.0908 77.064C46.5168 77.064 45.8308 77.484 45.3688 78.632V83H44.2208ZM51.6956 83.168C49.8756 83.168 48.4336 81.838 48.4336 79.612C48.4336 77.386 49.9316 76.028 51.4856 76.028C53.2216 76.028 54.2016 77.274 54.2016 79.22C54.2016 79.458 54.1876 79.71 54.1596 79.878H49.5676C49.6516 81.32 50.5336 82.244 51.8356 82.244C52.4796 82.244 53.0256 82.034 53.5296 81.712L53.9356 82.468C53.3476 82.846 52.6196 83.168 51.6956 83.168ZM49.5536 79.052H53.1936C53.1936 77.68 52.5776 76.938 51.5136 76.938C50.5616 76.938 49.6936 77.708 49.5536 79.052ZM55.8829 83V76.196H56.8349L56.9329 77.176H56.9749C57.5629 76.532 58.2769 76.028 59.0889 76.028C60.1249 76.028 60.6849 76.518 60.9649 77.33C61.6789 76.56 62.3789 76.028 63.2049 76.028C64.6049 76.028 65.2769 76.952 65.2769 78.688V83H64.1289V78.842C64.1289 77.568 63.7229 77.022 62.8689 77.022C62.3369 77.022 61.7909 77.372 61.1609 78.072V83H60.0129V78.842C60.0129 77.568 59.6069 77.022 58.7389 77.022C58.2349 77.022 57.6609 77.372 57.0309 78.072V83H55.8829ZM70.293 83V76.196H71.441V83H70.293ZM70.881 74.796C70.433 74.796 70.083 74.488 70.083 74.054C70.083 73.606 70.433 73.312 70.881 73.312C71.329 73.312 71.679 73.606 71.679 74.054C71.679 74.488 71.329 74.796 70.881 74.796ZM73.7383 85.87V76.196H74.6903L74.7883 76.98H74.8303C75.4463 76.462 76.2023 76.028 77.0003 76.028C78.7503 76.028 79.6883 77.386 79.6883 79.5C79.6883 81.81 78.3023 83.168 76.7483 83.168C76.1183 83.168 75.4883 82.874 74.8583 82.384L74.8863 83.574V85.87H73.7383ZM76.5523 82.202C77.6723 82.202 78.4983 81.18 78.4983 79.5C78.4983 78.002 77.9943 76.994 76.7063 76.994C76.1323 76.994 75.5583 77.316 74.8863 77.918V81.488C75.5023 82.006 76.1043 82.202 76.5523 82.202ZM83.282 83.168C82.316 83.168 81.392 82.762 80.748 82.23L81.322 81.46C81.91 81.936 82.512 82.272 83.324 82.272C84.22 82.272 84.668 81.796 84.668 81.208C84.668 80.508 83.856 80.2 83.114 79.92C82.148 79.57 81.084 79.108 81.084 77.96C81.084 76.868 81.952 76.028 83.422 76.028C84.276 76.028 85.018 76.378 85.536 76.798L84.99 77.526C84.528 77.176 84.038 76.924 83.436 76.924C82.582 76.924 82.19 77.386 82.19 77.904C82.19 78.548 82.932 78.786 83.702 79.08C84.682 79.444 85.774 79.85 85.774 81.138C85.774 82.244 84.892 83.168 83.282 83.168ZM89.3572 83.168C87.9152 83.168 87.2712 82.244 87.2712 80.508V76.196H88.4332V80.354C88.4332 81.628 88.8112 82.174 89.7072 82.174C90.4072 82.174 90.8972 81.824 91.5412 81.026V76.196H92.6892V83H91.7372L91.6392 81.936H91.5972C90.9672 82.678 90.2952 83.168 89.3572 83.168ZM94.9844 83V76.196H95.9364L96.0344 77.176H96.0764C96.6644 76.532 97.3784 76.028 98.1904 76.028C99.2264 76.028 99.7864 76.518 100.066 77.33C100.78 76.56 101.48 76.028 102.306 76.028C103.706 76.028 104.378 76.952 104.378 78.688V83H103.23V78.842C103.23 77.568 102.824 77.022 101.97 77.022C101.438 77.022 100.892 77.372 100.262 78.072V83H99.1144V78.842C99.1144 77.568 98.7084 77.022 97.8404 77.022C97.3364 77.022 96.7624 77.372 96.1324 78.072V83H94.9844ZM54.9325 109.168C53.2245 109.168 52.1185 107.88 52.1185 105.612C52.1185 103.4 53.5185 102.028 55.0725 102.028C55.8565 102.028 56.3745 102.322 56.9765 102.812L56.9205 101.65V99.032H58.0825V109H57.1305L57.0325 108.202H56.9905C56.4585 108.72 55.7305 109.168 54.9325 109.168ZM55.1845 108.202C55.8145 108.202 56.3605 107.894 56.9205 107.264V103.708C56.3465 103.19 55.8285 102.994 55.2685 102.994C54.1765 102.994 53.3085 104.044 53.3085 105.598C53.3085 107.222 53.9945 108.202 55.1845 108.202ZM63.0201 109.168C61.3541 109.168 59.8701 107.866 59.8701 105.612C59.8701 103.33 61.3541 102.028 63.0201 102.028C64.6861 102.028 66.1701 103.33 66.1701 105.612C66.1701 107.866 64.6861 109.168 63.0201 109.168ZM63.0201 108.216C64.1961 108.216 64.9801 107.166 64.9801 105.612C64.9801 104.044 64.1961 102.98 63.0201 102.98C61.8581 102.98 61.0601 104.044 61.0601 105.612C61.0601 107.166 61.8581 108.216 63.0201 108.216ZM69.18 109.168C68.312 109.168 67.962 108.622 67.962 107.628V99.032H69.11V107.712C69.11 108.076 69.264 108.216 69.432 108.216C69.502 108.216 69.558 108.216 69.684 108.188L69.838 109.056C69.684 109.126 69.488 109.168 69.18 109.168ZM74.1763 109.168C72.5103 109.168 71.0263 107.866 71.0263 105.612C71.0263 103.33 72.5103 102.028 74.1763 102.028C75.8423 102.028 77.3263 103.33 77.3263 105.612C77.3263 107.866 75.8423 109.168 74.1763 109.168ZM74.1763 108.216C75.3523 108.216 76.1363 107.166 76.1363 105.612C76.1363 104.044 75.3523 102.98 74.1763 102.98C73.0143 102.98 72.2163 104.044 72.2163 105.612C72.2163 107.166 73.0143 108.216 74.1763 108.216ZM79.1182 109V102.196H80.0702L80.1682 103.428H80.2102C80.6722 102.574 81.3722 102.028 82.1422 102.028C82.4362 102.028 82.6462 102.07 82.8702 102.168L82.6462 103.176C82.4222 103.106 82.2682 103.064 81.9882 103.064C81.4142 103.064 80.7282 103.484 80.2662 104.632V109H79.1182Z" fill="white"/>
<path d="M44.9733 51.18V45.66H39.6933V42.54H44.9733V37.02H48.2133V42.54H53.4933V45.66H48.2133V51.18H44.9733ZM55.6329 54V51.48C60.4929 46.89 63.9129 43.62 63.9129 40.92C63.9129 39.06 62.8629 38.04 61.2129 38.04C59.8329 38.04 58.7829 38.97 57.8229 39.99L55.4229 37.62C57.3129 35.61 59.0829 34.59 61.8129 34.59C65.5629 34.59 68.1129 36.99 68.1129 40.65C68.1129 43.86 65.1129 47.28 62.0229 50.52C62.9829 50.4 64.3029 50.28 65.2029 50.28H69.0429V54H55.6329ZM76.0125 46.5C73.1925 46.5 71.1525 44.19 71.1525 40.26C71.1525 36.36 73.1925 34.08 76.0125 34.08C78.8325 34.08 80.9025 36.36 80.9025 40.26C80.9025 44.19 78.8325 46.5 76.0125 46.5ZM76.0125 44.04C77.0025 44.04 77.8125 43.05 77.8125 40.26C77.8125 37.47 77.0025 36.54 76.0125 36.54C75.0225 36.54 74.2125 37.47 74.2125 40.26C74.2125 43.05 75.0225 44.04 76.0125 44.04ZM76.6725 54.36L87.2325 34.08H89.7825L79.2225 54.36H76.6725ZM90.4425 54.36C87.6225 54.36 85.5825 52.05 85.5825 48.12C85.5825 44.22 87.6225 41.94 90.4425 41.94C93.2625 41.94 95.3325 44.22 95.3325 48.12C95.3325 52.05 93.2625 54.36 90.4425 54.36ZM90.4425 51.9C91.4325 51.9 92.2425 50.91 92.2425 48.12C92.2425 45.33 91.4325 44.4 90.4425 44.4C89.4525 44.4 88.6425 45.33 88.6425 48.12C88.6425 50.91 89.4525 51.9 90.4425 51.9Z" fill="white"/>
</g>
<defs>
<clipPath id="clip0_91_2">
<rect width="134" height="134" fill="white"/>
</clipPath>
</defs>
</svg>
