<svg width="68" height="78" viewBox="0 0 68 78" fill="none" xmlns="http://www.w3.org/2000/svg">
<path d="M32.75 59.2012C33.2141 58.9334 33.786 58.9334 34.25 59.2012L47.4287 66.8096C47.8925 67.0774 48.1787 67.5724 48.1787 68.1084C48.1787 68.6443 47.8926 69.1394 47.4287 69.4072L36.6826 75.6094C36.5394 76.2879 35.9364 76.7998 35.2158 76.7998C35.0536 76.7998 34.8976 76.7727 34.751 76.7246L34.25 77.0146C34.018 77.1488 33.759 77.2168 33.5 77.2168C33.241 77.2168 32.9821 77.1488 32.75 77.0146C32.2861 76.7469 32.0001 76.2522 32 75.7168V60.5C32 59.9639 32.286 59.469 32.75 59.2012ZM54.4883 0C58.189 9.87382e-05 61.4909 2.47781 62.5186 6.02441L65.0908 14.9043C65.2015 15.2863 65.156 15.6964 64.9639 16.0449C64.7717 16.3929 64.4494 16.651 64.0674 16.7617L14.9131 31.001H66.0889C66.9171 31.0012 67.5887 31.6728 67.5889 32.501V68.4521C67.5889 73.0553 63.8434 76.7998 59.2403 76.7998H41.2158C40.388 76.7997 39.7158 76.1283 39.7158 75.2998C39.716 74.4714 40.3881 73.7999 41.2158 73.7998H59.2403C62.1893 73.7998 64.5889 71.4012 64.5889 68.4521V48.0391H5.84377V68.4521C5.84377 71.4012 8.24338 73.7998 11.1924 73.7998H29.2158C30.0443 73.7998 30.7157 74.4714 30.7158 75.2998C30.7158 76.1283 30.0444 76.7998 29.2158 76.7998H11.1914C6.58889 76.7998 2.84377 73.0553 2.84377 68.4521V32.7139L0.331078 24.0391C-0.287047 21.9052 -0.0339842 19.6509 1.04397 17.6934C2.12267 15.7358 3.89183 14.3164 6.02639 13.6982L52.1778 0.329102C52.9313 0.111133 53.7084 0 54.4883 0ZM35 73.1182L43.6787 68.1084L35 63.0977V73.1182ZM5.84377 45.0391H12.667L19.0401 34.001H5.84377V45.0391ZM16.1319 45.0391H24.4209L30.794 34.001H22.5039L16.1319 45.0391ZM27.8848 45.0391H36.1748L42.5469 34.001H34.2578L27.8848 45.0391ZM39.6387 45.0391H47.9287L54.3008 34.001H46.0117L39.6387 45.0391ZM51.3926 45.0391H64.5889V34.001H57.7656L51.3926 45.0391ZM6.86135 16.5801C5.49615 16.9756 4.36329 17.885 3.6719 19.1406C2.98068 20.3968 2.81749 21.8396 3.21291 23.2041L5.36819 30.6426L18.6114 26.8057L7.93948 16.5557C7.86506 16.4842 7.79905 16.4062 7.74221 16.3242L6.86135 16.5801ZM11.0362 15.3701L21.708 25.6211C21.7824 25.6926 21.849 25.7705 21.9053 25.8525L29.9014 23.5361L19.2295 13.2852C19.1545 13.2131 19.0885 13.1357 19.0322 13.0537L11.0362 15.3701ZM22.3252 12.1006L32.9981 22.3506C33.073 22.422 33.1382 22.5001 33.1944 22.582L41.1905 20.2656L30.5186 10.0156C30.4442 9.94355 30.3781 9.86563 30.3213 9.78418L22.3252 12.1006ZM33.6153 8.8291L44.2871 19.0801C44.3621 19.1516 44.4281 19.2295 44.4844 19.3115L52.4805 16.9951L41.8086 6.74512C41.7337 6.6731 41.6676 6.59563 41.6114 6.51367L33.6153 8.8291ZM54.4883 3C53.9909 3 53.4943 3.07053 53.0127 3.20996L44.9053 5.55957L55.5772 15.8096C55.652 15.8815 55.7177 15.9591 55.7744 16.041L61.792 14.2979L59.6377 6.85938C58.9791 4.58718 56.8618 3.0001 54.4883 3Z" fill="#FF6565"/>
</svg>
